# Blender v2.81 (sub 16) OBJ File: 'vehicles.blend'
# www.blender.org
mtllib truck_s.mtl
v -1.086434 -0.548086 2.400000
v 0.913565 -0.548086 2.400000
v -0.646435 0.656840 2.520000
v 0.473565 0.756839 2.520000
v -1.086434 0.151914 2.400000
v 0.913565 0.151914 2.400000
v -1.846435 -0.448085 2.400000
v -1.786434 0.051915 2.400000
v 1.913565 -0.548086 2.460000
v 1.813565 0.051915 2.460000
v 1.913565 -0.348085 2.460000
v 2.013566 -0.548086 2.460000
v 2.013566 -0.348085 2.460000
v -1.846435 -0.248086 2.400000
v -1.987587 -0.450059 2.400000
v -1.986434 -0.248085 2.400000
v -1.086434 -0.548085 3.600000
v 0.913565 -0.548085 3.600000
v -0.646435 0.656840 3.480000
v 0.473565 0.756840 3.480000
v -1.086434 0.151914 3.600000
v 0.913565 0.151914 3.600000
v -1.846435 -0.448085 3.600000
v -1.786434 0.051915 3.600000
v 1.913565 -0.548085 3.540000
v 1.813565 0.051915 3.540000
v 1.913565 -0.348085 3.540000
v 2.013566 -0.548085 3.540000
v 2.013566 -0.348085 3.540000
v -1.846435 -0.248086 3.600000
v -1.987587 -0.450059 3.600000
v -1.986434 -0.248085 3.600000
v 0.898949 -0.195896 3.293261
v 0.898949 -0.195896 3.693261
v 1.038949 -0.233409 3.293261
v 1.038949 -0.233409 3.693261
v 1.141436 -0.335896 3.293261
v 1.141436 -0.335896 3.693261
v 1.178949 -0.475896 3.293261
v 1.178949 -0.475896 3.693261
v 1.141436 -0.615896 3.293261
v 1.141436 -0.615896 3.693261
v 1.038949 -0.718383 3.293261
v 1.038949 -0.718383 3.693261
v 0.898949 -0.755896 3.293261
v 0.898949 -0.755896 3.693261
v 0.758949 -0.718383 3.293261
v 0.758949 -0.718383 3.693261
v 0.656462 -0.615896 3.293261
v 0.656462 -0.615896 3.693261
v 0.618949 -0.475896 3.293261
v 0.618949 -0.475896 3.693261
v 0.656462 -0.335896 3.293261
v 0.656462 -0.335896 3.693261
v 0.758949 -0.233409 3.293261
v 0.758949 -0.233409 3.693261
v -0.872971 -0.195896 3.293261
v -0.872971 -0.195896 3.693261
v -1.012971 -0.233409 3.293261
v -1.012971 -0.233409 3.693261
v -1.115458 -0.335896 3.293261
v -1.115458 -0.335896 3.693261
v -1.152971 -0.475896 3.293261
v -1.152971 -0.475896 3.693261
v -1.115458 -0.615896 3.293261
v -1.115458 -0.615896 3.693261
v -1.012971 -0.718383 3.293261
v -1.012971 -0.718383 3.693261
v -0.872971 -0.755896 3.293261
v -0.872971 -0.755896 3.693261
v -0.732971 -0.718383 3.293261
v -0.732971 -0.718383 3.693261
v -0.630484 -0.615896 3.293261
v -0.630484 -0.615896 3.693261
v -0.592971 -0.475896 3.293261
v -0.592971 -0.475896 3.693261
v -0.630484 -0.335896 3.293261
v -0.630484 -0.335896 3.693261
v -0.732971 -0.233409 3.293261
v -0.732971 -0.233409 3.693261
v 0.898949 -0.195896 2.706739
v 0.898949 -0.195896 2.306739
v 1.038949 -0.233409 2.706739
v 1.038949 -0.233409 2.306739
v 1.141436 -0.335896 2.706739
v 1.141436 -0.335896 2.306739
v 1.178949 -0.475896 2.706739
v 1.178949 -0.475896 2.306739
v 1.141436 -0.615896 2.706739
v 1.141436 -0.615896 2.306739
v 1.038949 -0.718383 2.706739
v 1.038949 -0.718383 2.306739
v 0.898949 -0.755896 2.706739
v 0.898949 -0.755896 2.306739
v 0.758949 -0.718383 2.706739
v 0.758949 -0.718383 2.306739
v 0.656462 -0.615896 2.706739
v 0.656462 -0.615896 2.306739
v 0.618949 -0.475896 2.706739
v 0.618949 -0.475896 2.306739
v 0.656462 -0.335896 2.706739
v 0.656462 -0.335896 2.306739
v 0.758949 -0.233409 2.706739
v 0.758949 -0.233409 2.306739
v -0.872971 -0.195896 2.706739
v -0.872971 -0.195896 2.306739
v -1.012971 -0.233409 2.706739
v -1.012971 -0.233409 2.306739
v -1.115458 -0.335896 2.706739
v -1.115458 -0.335896 2.306739
v -1.152971 -0.475896 2.706739
v -1.152971 -0.475896 2.306739
v -1.115458 -0.615896 2.706739
v -1.115458 -0.615896 2.306739
v -1.012971 -0.718383 2.706739
v -1.012971 -0.718383 2.306739
v -0.872971 -0.755896 2.706739
v -0.872971 -0.755896 2.306739
v -0.732971 -0.718383 2.706739
v -0.732971 -0.718383 2.306739
v -0.630484 -0.615896 2.706739
v -0.630484 -0.615896 2.306739
v -0.592971 -0.475896 2.706739
v -0.592971 -0.475896 2.306739
v -0.630484 -0.335896 2.706739
v -0.630484 -0.335896 2.306739
v -0.732971 -0.233409 2.706739
v -0.732971 -0.233409 2.306739
vt 0.115211 0.568639
vt 0.024801 0.490841
vt 0.006988 0.293084
vt 0.115211 0.215498
vt 0.239908 0.568624
vt 0.239908 0.215483
vt 0.222094 0.702820
vt 0.186466 0.702824
vt 0.133025 0.692236
vt 0.132793 0.056523
vt 0.204049 0.038858
vt 0.239676 0.038853
vt 0.468989 0.046120
vt 0.433362 0.046116
vt 0.433362 0.021396
vt 0.469341 0.021196
vt 0.362106 0.180301
vt 0.362106 0.533442
vt 0.253883 0.455856
vt 0.271697 0.258099
vt 0.486803 0.180316
vt 0.486803 0.533457
vt 0.379920 0.056703
vt 0.486572 0.710086
vt 0.450944 0.710082
vt 0.379689 0.692416
vt 0.896620 0.428459
vt 0.725567 0.428459
vt 0.725567 0.230539
vt 0.896620 0.230539
vt 0.965879 0.440753
vt 0.965879 0.652641
vt 0.929894 0.652641
vt 0.929894 0.440753
vt 0.703331 0.710168
vt 0.510896 0.710168
vt 0.500205 0.533602
vt 0.714021 0.533602
vt 0.931056 0.665354
vt 0.931056 0.877242
vt 0.839478 0.856053
vt 0.839478 0.686543
vt 0.714021 0.046118
vt 0.500205 0.046118
vt 0.500205 0.021199
vt 0.714021 0.021199
vt 0.885428 0.006357
vt 0.885428 0.218245
vt 0.725241 0.207650
vt 0.725241 0.016951
vt 0.959495 0.665354
vt 0.959495 0.877242
vt 0.934551 0.877242
vt 0.934551 0.665354
vt 0.902821 0.421021
vt 0.902821 0.230322
vt 0.938445 0.230322
vt 0.938446 0.421021
vt 0.978595 0.664719
vt 0.978595 0.855418
vt 0.960778 0.855418
vt 0.960778 0.664719
vt 0.849071 0.440753
vt 0.849071 0.652641
vt 0.724183 0.652641
vt 0.724182 0.440753
vt 0.500205 0.180470
vt 0.714021 0.180470
vt 0.703331 0.727824
vt 0.510896 0.727825
vt 0.723727 0.856053
vt 0.723727 0.686543
vt 0.833439 0.665354
vt 0.833439 0.877242
vt 0.945508 0.006357
vt 0.945508 0.218245
vt 0.891844 0.218245
vt 0.891844 0.006357
vt 0.926664 0.440117
vt 0.926664 0.630817
vt 0.854969 0.630817
vt 0.854969 0.440117
vt 0.486572 0.727743
vt 0.450944 0.727739
vt 0.204049 0.021201
vt 0.239676 0.021196
vt 0.222446 0.727743
vt 0.186466 0.727544
vt 0.973622 0.072748
vt 0.973622 0.002119
vt 0.998503 0.002119
vt 0.998503 0.072748
vt 0.791080 0.885718
vt 0.791080 0.956347
vt 0.772368 0.956347
vt 0.772368 0.885718
vt 0.747264 0.956347
vt 0.747264 0.885718
vt 0.722493 0.956347
vt 0.722493 0.885718
vt 0.308553 0.852751
vt 0.379825 0.852751
vt 0.379825 0.870681
vt 0.308553 0.870681
vt 0.379825 0.895340
vt 0.308553 0.895340
vt 0.379825 0.920120
vt 0.308553 0.920120
vt 0.379825 0.938381
vt 0.308553 0.938381
vt 0.637065 0.927252
vt 0.637065 0.997881
vt 0.612264 0.997881
vt 0.612264 0.927252
vt 0.587185 0.997881
vt 0.587185 0.927252
vt 0.099248 0.786765
vt 0.099247 0.812357
vt 0.086338 0.834521
vt 0.063978 0.847317
vt 0.038160 0.847317
vt 0.015800 0.834521
vt 0.002891 0.812357
vt 0.002891 0.786765
vt 0.015800 0.764601
vt 0.038160 0.751805
vt 0.063979 0.751805
vt 0.086338 0.764601
vt 0.568548 0.997881
vt 0.568548 0.927252
vt 0.948615 0.072748
vt 0.948615 0.002119
vt 0.207167 0.812357
vt 0.207167 0.786765
vt 0.220077 0.764601
vt 0.242436 0.751805
vt 0.268255 0.751805
vt 0.290615 0.764601
vt 0.303524 0.786765
vt 0.303524 0.812357
vt 0.290615 0.834521
vt 0.268255 0.847317
vt 0.242436 0.847317
vt 0.220077 0.834521
vt 0.965892 0.301587
vt 0.990899 0.301587
vt 0.990899 0.372217
vt 0.965892 0.372217
vt 0.495846 0.927252
vt 0.514483 0.927252
vt 0.514483 0.997881
vt 0.495846 0.997881
vt 0.539562 0.927252
vt 0.539562 0.997881
vt 0.564363 0.927252
vt 0.564363 0.997881
vt 0.202138 0.852751
vt 0.202138 0.871013
vt 0.130866 0.871013
vt 0.130866 0.852751
vt 0.202138 0.895792
vt 0.130866 0.895792
vt 0.202138 0.920451
vt 0.130866 0.920451
vt 0.202138 0.938381
vt 0.130866 0.938381
vt 0.641253 0.852385
vt 0.666023 0.852385
vt 0.666023 0.923014
vt 0.641253 0.923014
vt 0.691127 0.852385
vt 0.691127 0.923014
vt 0.682267 0.834604
vt 0.659907 0.847400
vt 0.634089 0.847400
vt 0.611729 0.834604
vt 0.598820 0.812441
vt 0.598820 0.786848
vt 0.611729 0.764685
vt 0.634089 0.751889
vt 0.659908 0.751889
vt 0.682267 0.764685
vt 0.695177 0.786848
vt 0.695176 0.812441
vt 0.709839 0.852385
vt 0.709839 0.923014
vt 0.941011 0.301587
vt 0.941011 0.372217
vt 0.496682 0.812441
vt 0.496681 0.786848
vt 0.509591 0.764685
vt 0.531950 0.751889
vt 0.557769 0.751889
vt 0.580129 0.764685
vt 0.593038 0.786848
vt 0.593038 0.812441
vt 0.580129 0.834604
vt 0.557769 0.847400
vt 0.531951 0.847400
vt 0.509591 0.834604
vt 0.965892 0.297350
vt 0.941011 0.297349
vt 0.941011 0.226720
vt 0.965892 0.226720
vt 0.637137 0.923014
vt 0.618425 0.923014
vt 0.618425 0.852385
vt 0.637137 0.852385
vt 0.593321 0.923014
vt 0.593321 0.852385
vt 0.568550 0.923014
vt 0.568550 0.852385
vt 0.481963 0.751509
vt 0.481963 0.769439
vt 0.410691 0.769439
vt 0.410691 0.751509
vt 0.481963 0.794097
vt 0.410691 0.794097
vt 0.481963 0.818877
vt 0.410691 0.818877
vt 0.481963 0.837138
vt 0.410691 0.837138
vt 0.863710 0.956347
vt 0.838909 0.956347
vt 0.838909 0.885718
vt 0.863710 0.885718
vt 0.813830 0.956347
vt 0.813830 0.885718
vt 0.105029 0.786765
vt 0.117938 0.764601
vt 0.140298 0.751805
vt 0.166117 0.751805
vt 0.188476 0.764601
vt 0.201386 0.786765
vt 0.201386 0.812357
vt 0.188476 0.834521
vt 0.166117 0.847317
vt 0.140298 0.847317
vt 0.117938 0.834521
vt 0.105029 0.812357
vt 0.795193 0.956347
vt 0.795193 0.885718
vt 0.990899 0.297349
vt 0.990899 0.226720
vt 0.405662 0.812357
vt 0.392753 0.834521
vt 0.370393 0.847317
vt 0.344574 0.847317
vt 0.322215 0.834521
vt 0.309305 0.812357
vt 0.309305 0.786765
vt 0.322215 0.764601
vt 0.344575 0.751805
vt 0.370393 0.751805
vt 0.392753 0.764601
vt 0.405662 0.786765
vt 0.964897 0.885718
vt 0.964897 0.956347
vt 0.939889 0.956347
vt 0.939889 0.885718
vt 0.867821 0.956347
vt 0.867821 0.885718
vt 0.886458 0.885718
vt 0.886458 0.956347
vt 0.911536 0.885718
vt 0.911536 0.956347
vt 0.936337 0.885718
vt 0.936337 0.956347
vt 0.410691 0.842276
vt 0.481963 0.842276
vt 0.481963 0.860538
vt 0.410691 0.860538
vt 0.481963 0.885318
vt 0.410691 0.885318
vt 0.481963 0.909976
vt 0.410691 0.909976
vt 0.481963 0.927906
vt 0.410691 0.927906
vt 0.495848 0.923014
vt 0.495848 0.852385
vt 0.520619 0.852385
vt 0.520619 0.923014
vt 0.545723 0.852385
vt 0.545723 0.923014
vt 0.015800 0.935763
vt 0.002891 0.913599
vt 0.002891 0.888007
vt 0.015800 0.865844
vt 0.038160 0.853047
vt 0.063978 0.853048
vt 0.086338 0.865844
vt 0.099247 0.888008
vt 0.099247 0.913600
vt 0.086338 0.935763
vt 0.063978 0.948559
vt 0.038160 0.948559
vt 0.564435 0.852385
vt 0.564435 0.923014
vt 0.989778 0.885718
vt 0.989778 0.956347
vt 0.207167 0.888008
vt 0.220077 0.865844
vt 0.242436 0.853048
vt 0.268255 0.853048
vt 0.290615 0.865844
vt 0.303524 0.888007
vt 0.303524 0.913599
vt 0.290615 0.935763
vt 0.268255 0.948559
vt 0.242436 0.948559
vt 0.220077 0.935763
vt 0.207167 0.913600
vn -0.0068 0.2114 -0.9774
vn 0.0000 0.0000 -1.0000
vn 0.0623 0.0048 -0.9980
vn -0.0000 0.0000 1.0000
vn -0.0068 0.2114 0.9774
vn 0.0623 0.0048 0.9980
vn -0.0889 0.9960 -0.0000
vn -1.0000 0.0057 0.0000
vn 0.0000 -1.0000 0.0000
vn -0.7539 0.6570 0.0000
vn 0.0140 -0.9999 0.0000
vn 0.1104 0.9939 0.0000
vn 0.0000 1.0000 0.0000
vn 1.0000 0.0000 0.0000
vn -0.1414 0.9899 0.0000
vn -0.1305 -0.9915 0.0000
vn 0.8087 0.5882 -0.0000
vn -0.9806 0.1961 0.0000
vn 0.9701 0.2425 0.0000
vn 0.2588 0.9659 0.0000
vn 0.7071 0.7071 0.0000
vn 0.9659 0.2588 0.0000
vn 0.9659 -0.2588 0.0000
vn 0.7071 -0.7071 0.0000
vn 0.2588 -0.9659 0.0000
vn -0.2588 -0.9659 0.0000
vn -0.7071 -0.7071 0.0000
vn -0.9659 -0.2588 0.0000
vn -0.9659 0.2588 0.0000
vn -0.7071 0.7071 0.0000
vn -0.2588 0.9659 0.0000
usemtl Truck_S
s off
f 5/1/1 3/2/1 4/3/1 6/4/1
f 1/5/2 5/1/2 6/4/2 2/6/2
f 1/5/2 7/7/2 14/8/2 8/9/2 5/1/2
f 6/4/3 10/10/3 11/11/3 9/12/3 2/6/3
f 23/13/4 30/14/4 32/15/4 31/16/4
f 21/17/5 22/18/5 20/19/5 19/20/5
f 17/21/4 18/22/4 22/18/4 21/17/4
f 17/21/4 21/17/4 24/23/4 30/14/4 23/13/4
f 22/18/6 18/22/6 25/24/6 27/25/6 26/26/6
f 3/27/7 19/28/7 20/29/7 4/30/7
f 15/31/8 31/32/8 32/33/8 16/34/8
f 9/35/9 25/36/9 18/37/9 2/38/9
f 5/39/10 21/40/10 19/41/10 3/42/10
f 7/43/11 23/44/11 31/45/11 15/46/11
f 6/47/12 22/48/12 26/49/12 10/50/12
f 16/51/13 32/52/13 30/53/13 14/54/13
f 13/55/14 29/56/14 28/57/14 12/58/14
f 11/59/13 27/60/13 29/61/13 13/62/13
f 8/63/15 24/64/15 21/65/15 5/66/15
f 2/38/9 18/37/9 17/67/9 1/68/9
f 12/69/9 28/70/9 25/36/9 9/35/9
f 1/68/16 17/67/16 23/44/16 7/43/16
f 4/71/17 20/72/17 22/73/17 6/74/17
f 14/75/18 30/76/18 24/77/18 8/78/18
f 10/79/19 26/80/19 27/81/19 11/82/19
f 27/25/4 25/24/4 28/83/4 29/84/4
f 11/11/2 13/85/2 12/86/2 9/12/2
f 7/7/2 15/87/2 16/88/2 14/8/2
f 33/89/20 34/90/20 36/91/20 35/92/20
f 35/93/21 36/94/21 38/95/21 37/96/21
f 37/96/22 38/95/22 40/97/22 39/98/22
f 39/98/23 40/97/23 42/99/23 41/100/23
f 41/101/24 42/102/24 44/103/24 43/104/24
f 43/104/25 44/103/25 46/105/25 45/106/25
f 45/106/26 46/105/26 48/107/26 47/108/26
f 47/108/27 48/107/27 50/109/27 49/110/27
f 49/111/28 50/112/28 52/113/28 51/114/28
f 51/114/29 52/113/29 54/115/29 53/116/29
f 36/117/4 34/118/4 56/119/4 54/120/4 52/121/4 50/122/4 48/123/4 46/124/4 44/125/4 42/126/4 40/127/4 38/128/4
f 53/116/30 54/115/30 56/129/30 55/130/30
f 55/131/31 56/132/31 34/90/31 33/89/31
f 33/133/2 35/134/2 37/135/2 39/136/2 41/137/2 43/138/2 45/139/2 47/140/2 49/141/2 51/142/2 53/143/2 55/144/2
f 57/145/31 59/146/31 60/147/31 58/148/31
f 59/149/30 61/150/30 62/151/30 60/152/30
f 61/150/29 63/153/29 64/154/29 62/151/29
f 63/153/28 65/155/28 66/156/28 64/154/28
f 65/157/27 67/158/27 68/159/27 66/160/27
f 67/158/26 69/161/26 70/162/26 68/159/26
f 69/161/25 71/163/25 72/164/25 70/162/25
f 71/163/24 73/165/24 74/166/24 72/164/24
f 73/167/23 75/168/23 76/169/23 74/170/23
f 75/168/22 77/171/22 78/172/22 76/169/22
f 60/173/4 62/174/4 64/175/4 66/176/4 68/177/4 70/178/4 72/179/4 74/180/4 76/181/4 78/182/4 80/183/4 58/184/4
f 77/171/21 79/185/21 80/186/21 78/172/21
f 79/187/20 57/145/20 58/148/20 80/188/20
f 57/189/2 79/190/2 77/191/2 75/192/2 73/193/2 71/194/2 69/195/2 67/196/2 65/197/2 63/198/2 61/199/2 59/200/2
f 81/201/20 83/202/20 84/203/20 82/204/20
f 83/205/21 85/206/21 86/207/21 84/208/21
f 85/206/22 87/209/22 88/210/22 86/207/22
f 87/209/23 89/211/23 90/212/23 88/210/23
f 89/213/24 91/214/24 92/215/24 90/216/24
f 91/214/25 93/217/25 94/218/25 92/215/25
f 93/217/26 95/219/26 96/220/26 94/218/26
f 95/219/27 97/221/27 98/222/27 96/220/27
f 97/223/28 99/224/28 100/225/28 98/226/28
f 99/224/29 101/227/29 102/228/29 100/225/29
f 84/229/2 86/230/2 88/231/2 90/232/2 92/233/2 94/234/2 96/235/2 98/236/2 100/237/2 102/238/2 104/239/2 82/240/2
f 101/227/30 103/241/30 104/242/30 102/228/30
f 103/243/31 81/201/31 82/204/31 104/244/31
f 81/245/4 103/246/4 101/247/4 99/248/4 97/249/4 95/250/4 93/251/4 91/252/4 89/253/4 87/254/4 85/255/4 83/256/4
f 105/257/31 106/258/31 108/259/31 107/260/31
f 107/261/30 108/262/30 110/263/30 109/264/30
f 109/264/29 110/263/29 112/265/29 111/266/29
f 111/266/28 112/265/28 114/267/28 113/268/28
f 113/269/27 114/270/27 116/271/27 115/272/27
f 115/272/26 116/271/26 118/273/26 117/274/26
f 117/274/25 118/273/25 120/275/25 119/276/25
f 119/276/24 120/275/24 122/277/24 121/278/24
f 121/279/23 122/280/23 124/281/23 123/282/23
f 123/282/22 124/281/22 126/283/22 125/284/22
f 108/285/2 106/286/2 128/287/2 126/288/2 124/289/2 122/290/2 120/291/2 118/292/2 116/293/2 114/294/2 112/295/2 110/296/2
f 125/284/21 126/283/21 128/297/21 127/298/21
f 127/299/20 128/300/20 106/258/20 105/257/20
f 105/301/4 107/302/4 109/303/4 111/304/4 113/305/4 115/306/4 117/307/4 119/308/4 121/309/4 123/310/4 125/311/4 127/312/4
